<?xml version="1.0" standalone="no"?>
<!DOCTYPE svg PUBLIC "-//W3C//DTD SVG 20010904//EN"
 "http://www.w3.org/TR/2001/REC-SVG-20010904/DTD/svg10.dtd">
<svg version="1.0" xmlns="http://www.w3.org/2000/svg"
 width="512.000000pt" height="512.000000pt" viewBox="0 0 512.000000 512.000000"
 preserveAspectRatio="xMidYMid meet">
<metadata>
Created by potrace 1.14, written by Peter Selinger 2001-2017
</metadata>
<g transform="translate(0.000000,512.000000) scale(0.100000,-0.100000)"
fill="#000000" stroke="none">
<path d="M3639 5116 c-2 -2 -26 -7 -54 -10 -27 -3 -57 -8 -65 -9 -222 -46
-416 -135 -595 -276 -38 -30 -2183 -2169 -2488 -2481 -78 -80 -165 -179 -193
-220 -109 -158 -187 -349 -220 -532 -17 -96 -23 -301 -12 -398 61 -521 441
-977 943 -1128 154 -47 225 -56 405 -56 135 0 184 4 269 23 226 49 415 141
589 285 33 27 631 621 1329 1320 1319 1321 1325 1328 1420 1506 59 111 114
268 138 400 11 58 15 372 6 420 -5 25 -12 61 -15 80 -8 46 -29 121 -56 195
-114 315 -357 587 -657 739 -81 40 -187 82 -248 97 -22 5 -49 12 -60 15 -72
18 -149 26 -281 30 -83 2 -153 2 -155 0z m-1067 -3949 c-309 -309 -594 -586
-633 -614 -94 -70 -212 -127 -334 -159 -83 -23 -122 -27 -230 -28 -224 -1
-359 34 -538 141 -100 59 -246 200 -312 301 -223 342 -211 804 30 1127 24 33
300 316 612 628 l567 568 700 -701 701 -700 -563 -563z"/>
</g>
</svg>
