<?xml version="1.0" encoding="utf-8"?>
<!-- Generator: Adobe Illustrator 25.2.0, SVG Export Plug-In . SVG Version: 6.00 Build 0)  -->
<svg version="1.1"
	 id="svg3025" inkscape:version="0.48.3.1 r9886" sodipodi:docname="chevron_right_font_awesome.svg" xmlns:cc="http://creativecommons.org/ns#" xmlns:dc="http://purl.org/dc/elements/1.1/" xmlns:inkscape="http://www.inkscape.org/namespaces/inkscape" xmlns:rdf="http://www.w3.org/1999/02/22-rdf-syntax-ns#" xmlns:sodipodi="http://sodipodi.sourceforge.net/DTD/sodipodi-0.dtd" xmlns:svg="http://www.w3.org/2000/svg"
	 xmlns="http://www.w3.org/2000/svg" xmlns:xlink="http://www.w3.org/1999/xlink" x="0px" y="0px" viewBox="0 0 700 700"
	 style="enable-background:new 0 0 700 700;" xml:space="preserve">
<style type="text/css">
	.st0{fill:#FFFFFF;}
</style>
<sodipodi:namedview  bordercolor="#666666" borderopacity="1" gridtolerance="10" guidetolerance="10" id="namedview3031" inkscape:current-layer="svg3025" inkscape:cx="896" inkscape:cy="896" inkscape:pageopacity="0" inkscape:pageshadow="2" inkscape:window-height="480" inkscape:window-maximized="0" inkscape:window-width="640" inkscape:window-x="0" inkscape:window-y="25" inkscape:zoom="0.13169643" objecttolerance="10" pagecolor="#ffffff" showgrid="false">
	</sodipodi:namedview>
<g id="g3027" transform="matrix(1,0,0,-1,349.28814,1330.9831)">
	<path id="path3029" inkscape:connector-curvature="0" class="st0" d="M198.4,981c0-11.8-4.2-22.2-12.6-31.1L-36.9,727.6
		c-8.4-8.4-18.7-12.6-30.7-12.6s-22.3,4.2-30.7,12.6l-26,25.6c-8.4,8.9-12.6,19.2-12.6,31.1c0,12.1,4.2,22.3,12.6,30.7l166,166
		l-166,165.6c-8.4,8.9-12.6,19.2-12.6,31.1c0,12.1,4.2,22.3,12.6,30.7l26,25.6c8.2,8.7,18.4,13,30.7,13s22.5-4.3,30.7-13
		l222.7-222.3C194.2,1003.3,198.4,993.1,198.4,981z"/>
</g>
</svg>
