<?xml version="1.0" encoding="utf-8"?>
<!-- Generator: Adobe Illustrator 27.7.0, SVG Export Plug-In . SVG Version: 6.00 Build 0)  -->
<svg version="1.1" id="Layer_1" xmlns="http://www.w3.org/2000/svg" xmlns:xlink="http://www.w3.org/1999/xlink" x="0px" y="0px"
	 viewBox="0 0 384 384" style="enable-background:new 0 0 384 384;" xml:space="preserve">
<style type="text/css">
	.st0{fill:#ffffff;}
	.st1{fill:#C6B6D5;}
	.st2{fill:#FFFFFF;}
</style>
<g>
	<path d="M384,188.2c0,2.2,0,4.5,0,6.8c-0.2,0.2-0.6,0.5-0.7,0.8c-1,6.6-2,13.2-3.1,19.8c-3.1,18.8-9.4,36.4-18,53.3
		c-8,15.5-18,29.6-29.8,42.5c-9.7,10.7-20.8,20-32.8,28.1c-11.1,7.5-22.9,13.8-35.3,19c-20.2,8.4-41.2,12.8-62.9,14.3
		c-15.2,1-30.4,0-45.3-3c-17.3-3.5-34-8.9-49.8-16.9c-12.3-6.2-23.7-13.7-34.5-22.3c-10.9-8.6-20.8-18.3-29.4-29.1
		c-10.4-12.9-19.2-26.9-25.9-42.2C9,241.6,3.4,223.4,1.5,204.1c-0.3-2.8-1-5.6-1.5-8.4c0-2.5,0-5,0-7.5c6.2-1.2,12.3-2.9,18.5-3.5
		c3.8-0.4,4.1-1.9,4-4.9c-0.4-12,1.3-23.7,3.8-35.4c2.7-12.8,7-25,12.7-36.8c6.6-13.7,14.8-26.3,24.9-37.8
		C72.5,59.9,82,51,92.7,43.3c10.7-7.7,22.1-14.1,34.3-19.2c16-6.6,32.7-10.9,49.9-12c19.8-1.3,39.6-0.2,59,5
		c18.2,5,35.2,12.7,50.9,23.2c11.9,8,22.5,17.5,32,28.3c5.1,5.9,9.8,12.2,14.3,18.6c7.2,10.2,12.7,21.5,17.2,33.2
		c5,13,8.2,26.6,9.8,40.5c0.8,6.8,0.5,13.6,0.9,20.4c0,1.1,0.7,2.9,1.3,3C369.4,185.8,376.7,187,384,188.2z M24.8,206.4
		c0,1.4-0.1,2.4,0,3.4c2.9,15.7,7.6,30.8,14.6,45.1c6.5,13.2,14.5,25.3,24.2,36.5c9.3,10.7,19.7,20.1,31.2,28.2
		c15.3,10.9,31.9,18.9,50,24c13.7,3.9,27.6,6.5,41.9,6.6c6.3,0.1,12.6-0.2,18.9-0.7c6.1-0.5,12.2-1.2,18.2-2.3
		c14.6-2.6,28.6-7.3,41.8-13.9c18.3-9.2,35-20.7,48.8-36c5-5.6,10.3-11,14.7-17.2c15.2-21.5,25.7-45.1,29.8-71.4
		c0.4-2.3-0.5-2.3-1.8-2.5c-3.4-0.6-6.8-0.9-10.1-1.6c-21.5-5.1-40.9-14.1-57.7-28.9c-10.6-9.3-19.6-19.7-26.7-31.8
		c-6.5-11-14.2-21-24.9-28.2c-19.5-13.1-40.9-17.5-63.9-12.3c-21.7,4.9-38.4,17.2-49.9,36.3c-9.2,15.4-20.4,28.8-34.6,39.9
		C70.2,194.6,48.7,203,24.8,206.4z M312.8,97.8C274.6,41.6,200.4,17.4,133,46.1C75.1,70.6,43.8,130,45.4,178.7c3.7-1.6,7.5-3,11-4.8
		c18.8-9.3,34.1-22.6,44.8-40.6c9.4-15.8,20.8-29.3,36.5-39.1c13.1-8.1,27.3-13.1,42.4-14.6c8.6-0.8,17.4-0.1,26,0.6
		c9.8,0.8,19.1,4,28.1,8c15.3,6.9,27.7,17.4,38.4,30.1c0.6,0.8,2.5,1.6,3.1,1.2C288.1,112.5,300.3,105.2,312.8,97.8z M324.4,117.3
		c-12.9,7.5-25.3,14.7-38,22.1c13.2,18.6,30.4,31.5,52,39.3C338.5,157,333.3,137,324.4,117.3z"/>
	<path class="st0" d="M24.8,206.4c23.9-3.4,45.4-11.8,64.4-26.6c14.2-11.1,25.3-24.6,34.6-39.9c11.5-19.1,28.2-31.4,49.9-36.3
		c23-5.2,44.4-0.8,63.9,12.3C248.3,123,256,133,262.5,144c7.1,12,16.1,22.5,26.7,31.8c16.8,14.7,36.2,23.7,57.7,28.9
		c3.3,0.8,6.7,1.1,10.1,1.6c1.4,0.2,2.2,0.2,1.8,2.5c-4.1,26.2-14.6,49.9-29.8,71.4c-4.3,6.1-9.6,11.6-14.7,17.2
		c-13.8,15.3-30.5,26.9-48.8,36c-13.2,6.6-27.2,11.2-41.8,13.9c-6,1.1-12.1,1.8-18.2,2.3c-6.3,0.5-12.6,0.8-18.9,0.7
		c-14.3-0.1-28.1-2.8-41.9-6.6c-18.1-5.1-34.7-13.1-50-24c-11.5-8.2-21.9-17.6-31.2-28.2c-9.7-11.1-17.8-23.3-24.2-36.5
		c-7-14.3-11.7-29.4-14.6-45.1C24.6,208.8,24.8,207.8,24.8,206.4z M191.1,124.5c-31.8-1.5-54.6,26.3-56.1,52
		c-2.1,36.8,26.8,59.5,52.6,61.3c32.2,2.2,64.4-24.9,60.9-63.3C246.2,150.7,223,122.4,191.1,124.5z M103.3,231.3
		c18.2,31.9,56.5,56.9,101.8,50.5c32.8-4.6,57.7-21.9,75.3-50.3c-6.8-3.9-13.2-7.5-19.4-11.1c-16.3,25.4-39,39.5-69.2,39.7
		c-30.5,0.2-52.8-14.8-69.2-39.8C116,224.1,109.7,227.6,103.3,231.3z"/>
	<path class="st1" d="M312.8,97.8c-12.5,7.4-24.7,14.7-37.1,21.9c-0.6,0.3-2.4-0.4-3.1-1.2c-10.7-12.7-23.1-23.3-38.4-30.1
		c-9-4-18.3-7.2-28.1-8c-8.6-0.7-17.4-1.5-26-0.6c-15.2,1.5-29.4,6.5-42.4,14.6c-15.7,9.8-27.2,23.3-36.5,39.1
		c-10.7,18.1-26.1,31.3-44.8,40.6c-3.5,1.8-7.2,3.2-11,4.8C43.8,130,75.1,70.6,133,46.1C200.4,17.5,274.6,41.6,312.8,97.8z"/>
	<path class="st1" d="M324.4,117.3c8.9,19.7,14.1,39.7,14,61.4c-21.6-7.8-38.8-20.8-52-39.3C299,132,311.5,124.8,324.4,117.3z"/>
	<path d="M191.1,124.5c31.9-2.1,55.1,26.2,57.3,50c3.6,38.3-28.6,65.5-60.9,63.3c-25.8-1.8-54.7-24.5-52.6-61.3
		C136.5,150.8,159.3,123,191.1,124.5z M157.5,180.7c-1.2,17.4,15.4,36,35.8,34.5c17.6-1.3,32.9-14.3,32.9-34.4
		c0-19.2-13.6-34.4-35.8-34.4C172.5,146.5,157.3,161.1,157.5,180.7z"/>
	<path d="M103.3,231.3c6.4-3.7,12.7-7.3,19.2-11c16.3,24.9,38.6,39.9,69.1,39.8c30.2-0.2,52.9-14.3,69.2-39.7
		c6.3,3.6,12.6,7.2,19.4,11.1c-17.6,28.4-42.4,45.8-75.2,50.3C159.7,288.2,121.5,263.2,103.3,231.3z"/>
	<path class="st2" d="M157.5,180.7c-0.2-19.6,15-34.2,32.9-34.2c22.2-0.1,35.8,15.2,35.8,34.4c0,20.1-15.3,33.1-32.9,34.4
		C172.9,216.7,156.4,198.1,157.5,180.7z"/>
</g>
</svg>
