<?xml version="1.0" encoding="utf-8"?>
<!-- Generator: Adobe Illustrator 27.7.0, SVG Export Plug-In . SVG Version: 6.00 Build 0)  -->
<svg version="1.1" id="Layer_1" xmlns="http://www.w3.org/2000/svg" xmlns:xlink="http://www.w3.org/1999/xlink" x="0px" y="0px"
	 viewBox="0 0 376.16 376.16" style="enable-background:new 0 0 376.16 376.16;" xml:space="preserve">
<style type="text/css">
	.st0{fill:#48cae4;}
	.st1{fill:#FFFFFF;}
</style>
<g>
	<path class="st0" d="M376.09,99.76c0,7.57,0,15.15,0,22.72c-0.96,0.79-1.51,1.76-1.47,3.04c0.1,3.26-0.81,6.38-1.49,9.51
		c-4.51,20.78-14.37,38.75-29.33,53.75c-50.78,50.95-101.69,101.78-152.58,152.63c-9.59,9.58-20.4,17.39-32.69,23.35
		c-13.03,6.32-26.78,9.46-41.01,10.52c-14.33,1.07-28.37-1.04-41.97-5.79c-15.68-5.47-29.5-13.96-41.34-25.6
		c-10.59-10.41-18.84-22.4-24.73-36.1C4.89,297.12,1.95,286,1.02,274.59c-0.74-9.2-0.47-18.53,1.07-27.86
		c1.97-11.96,5.84-23.13,11.22-33.8c5.25-10.42,12.39-19.63,20.62-27.88c49.09-49.19,98.26-98.3,147.4-147.45
		c8.32-8.33,16.95-16.27,27.27-22.14c10.1-5.74,20.66-10.17,32.11-12.57c4.56-0.96,9.31-1.09,13.71-2.83c7.09,0,14.17,0,21.26,0
		c3.59,2.16,7.78,1.34,11.58,2.31c11.63,2.95,22.91,6.8,33.39,12.87c11.05,6.41,20.65,14.56,28.96,24.11
		c7.34,8.44,13.19,18.03,17.47,28.39c3.19,7.71,5.66,15.7,6.99,24.04C374.48,94.4,373.5,97.63,376.09,99.76z M140.05,127.28
		c35.46,35.45,70.72,70.66,105.88,105.97c2.21,2.22,3.19,2.02,5.27-0.08c23.06-23.23,46.28-46.3,69.37-69.5
		c12.88-12.94,19.29-28.99,20.98-46.87c1.02-10.83-0.57-21.54-4.32-31.84c-4.9-13.46-12.89-24.92-24.08-33.68
		C296,37.85,276.4,32.49,254.55,35.17c-16.42,2.02-30.64,8.67-42.28,20.04C187.98,78.94,164.17,103.15,140.05,127.28z
		 M122.47,165.23c-0.21-1.49,0.26-2.96-0.82-4.49c-2.97-4.21-9.51-5.71-14.43-0.73c-15.6,15.81-31.31,31.51-47.09,47.13
		c-8.43,8.34-15.28,17.66-19.86,28.67c-3.65,8.78-5.09,17.97-5.68,27.32c-0.27,4.18,2.56,8.47,5.53,9.53
		c3.08,1.11,7.22-0.32,9.77-3.17c2.22-2.48,1.95-5.69,2.11-8.48c0.88-15.25,6.82-28.16,17.44-38.9
		c16.39-16.57,32.93-32.99,49.41-49.47C120.9,170.59,123.01,168.56,122.47,165.23z"/>
	<path class="st1" d="M140.05,127.28c24.12-24.13,47.94-48.34,72.22-72.06c11.64-11.37,25.86-18.03,42.28-20.04
		c21.85-2.68,41.45,2.67,58.61,16.11c11.19,8.76,19.18,20.22,24.08,33.68c3.75,10.3,5.34,21.01,4.32,31.84
		c-1.69,17.88-8.1,33.93-20.98,46.87c-23.09,23.2-46.31,46.27-69.37,69.5c-2.09,2.1-3.06,2.3-5.27,0.08
		C210.77,197.94,175.51,162.73,140.05,127.28z"/>
	<path class="st1" d="M122.47,165.23c0.54,3.33-1.57,5.36-3.62,7.41c-16.48,16.48-33.02,32.9-49.41,49.47
		c-10.63,10.75-16.56,23.65-17.44,38.9c-0.16,2.78,0.11,6-2.11,8.48c-2.55,2.85-6.69,4.27-9.77,3.17c-2.97-1.07-5.8-5.36-5.53-9.53
		c0.6-9.35,2.03-18.54,5.68-27.32c4.58-11.01,11.43-20.33,19.86-28.67c15.79-15.62,31.5-31.32,47.09-47.13
		c4.91-4.98,11.46-3.48,14.43,0.73C122.73,162.27,122.26,163.74,122.47,165.23z"/>
</g>
</svg>
