<?xml version="1.0" encoding="utf-8"?>
<!-- Generator: Adobe Illustrator 27.7.0, SVG Export Plug-In . SVG Version: 6.00 Build 0)  -->
<svg version="1.1" id="Layer_1" xmlns="http://www.w3.org/2000/svg" xmlns:xlink="http://www.w3.org/1999/xlink" x="0px" y="0px"
	 viewBox="0 0 384 384" style="enable-background:new 0 0 384 384;" xml:space="preserve">
<style type="text/css">
	.st0{fill:#2B2D42;}
	.st1{fill:#FFFFFF;}
</style>
<g>
	<path class="st0" d="M310.5,384c-79.5,0-159,0-238.5,0c-0.49-0.26-0.95-0.69-1.46-0.74c-9.65-1.02-18.61-4.31-27.08-8.77
		c-8.56-4.51-15.99-10.56-22.47-17.84c-6.87-7.72-12.55-16.12-15.75-25.98C3.26,324.52,1.73,318.23,0,312c0-6.75,0-13.5,0-20.25
		c1.29-5.35,2.11-10.88,3.96-16.03c6.88-19.2,19.15-34.15,36.68-44.63c1.81-1.08,2.57-2.17,2.06-3.98
		c-2.69-9.48-2.54-19.16-0.5-28.54c4.98-22.95,17.62-40.58,38.31-52.18c0.88-0.49,1.7-1.63,1.92-2.61c0.49-2.13,0.66-4.35,0.81-6.55
		c0.77-11.53,4.5-22.25,9.28-32.6c6.23-13.48,15.31-24.82,27-33.95c7.07-5.52,15.04-9.38,23.57-12.35
		c10.4-3.62,21.24-2.82,31.84-4.31c7.52-1.06,14.22-3.97,19.8-9.16c8.09-7.53,10.33-17.59,10.57-27.89C205.5,8.7,208.09,2.93,216,0
		c3.5,0,7,0,10.5,0c0.36,0.25,0.69,0.59,1.09,0.72c7.42,2.43,15.14,4.18,22.19,7.41c12.34,5.65,22.13,14.75,30.75,25.2
		c12.81,15.53,19.81,33.46,20.75,53.36c0.44,9.33-0.84,18.94-2.72,28.13c-1.83,8.94-5.43,17.53-8.28,26.32
		c22.19,10.18,24.69,11.94,35.45,24.43c11.22,13.03,16.2,28.46,16.88,45.3c0.23,5.68-1.19,11.42-1.73,17.14
		c-0.07,0.79,0.36,2.03,0.97,2.42c8.29,5.27,16.06,11.07,22.47,18.68c7.89,9.38,13.41,19.91,16.69,31.67
		c1.08,3.88,1.99,7.81,2.98,11.72c0,6.5,0,13,0,19.5c-0.5,0.91-1.32,1.77-1.45,2.73c-2.28,16.86-9.83,31.26-21.27,43.48
		c-9.77,10.45-21.67,18.02-35.55,22.06C320.72,381.73,315.58,382.77,310.5,384z M69,220.7c2.61-0.36,4.76-0.89,6.92-0.91
		c15.87-0.15,31.74-0.23,47.61-0.27c4.14-0.01,7.76,1.83,10.26,4.84c3.55,4.28,4.02,9.67,1.73,14.55c-2.35,5-6.61,7.98-12.62,7.93
		c-13-0.11-26-0.07-39,0c-2.81,0.02-5.63,0.35-8.42,0.66c-15.49,1.71-27.83,8.92-37.15,21.37c-9.48,12.66-13.36,26.93-10.4,42.4
		c2.52,13.19,8.83,24.54,19.74,33.12c9.7,7.63,20.36,12.09,32.79,12.09c72.74,0,145.49-0.01,218.23,0.08
		c8.06,0.01,15.89-0.81,23.34-3.99c13.63-5.81,23.73-15.32,29.69-28.96c4.25-9.73,5.47-19.84,3.85-30.43
		c-2.24-14.66-9.59-26.15-21.05-35.12c-10.7-8.37-23.25-11.16-36.55-11.23c-12.87-0.07-25.75,0.03-38.62-0.08
		c-6.66-0.06-12.17-6.21-12.7-12.76c-0.6-7.42,6.1-14.69,14.16-14.53c10.24,0.21,20.5-0.07,30.75,0.09
		c6.06,0.09,12.12,0.54,18.18,0.98c4.47,0.32,5.34-0.24,5.24-4.65c-0.09-3.94-0.17-7.91-0.77-11.79
		c-1.97-12.66-8.57-22.48-18.77-30.12c-9.28-6.95-19.91-9.15-31.13-9.44c-6.62-0.17-13.25,0.07-19.86-0.29
		c-5.64-0.3-10.56-5.15-11.18-10.37c-0.99-8.35,2.03-13.52,8.56-15.61c4.54-1.45,9.78-1.04,14.69-0.9c3.12,0.09,4.73-1.1,6.02-3.68
		c5.01-10,9.51-20.06,10.6-31.48c0.89-9.28,1.17-18.41-1.48-27.4c-4.22-14.31-11.83-26.5-23.75-35.6
		c-4.99-3.81-10.7-6.68-16.42-10.18c-0.56,2.95-0.79,4.76-1.25,6.51c-4.59,17.34-14.48,30.52-30.53,38.91
		c-11.52,6.03-23.9,8.05-36.72,8.05c-8.24,0-15.74,2.55-22.52,6.97c-11.85,7.74-20.01,18.67-25.42,31.58
		c-2.1,5.02-3.09,10.52-4.68,16.16c9.35,0,17.84-0.26,26.31,0.07c10.01,0.39,14.54,7.26,13.93,14.45
		c-0.75,8.91-7.43,12.89-14.59,12.84c-7.35-0.05-14.7,0.3-22.04,0.45c-13.08,0.25-23.85,5.45-32.63,15.05
		C70.83,191.55,66.58,204.89,69,220.7z"/>
	<path class="st1" d="M69,220.7c-2.42-15.82,1.82-29.15,12.35-40.66c8.78-9.6,19.55-14.8,32.63-15.05c7.35-0.14,14.7-0.5,22.04-0.45
		c7.16,0.05,13.84-3.93,14.59-12.84c0.61-7.19-3.92-14.06-13.93-14.45c-8.47-0.33-16.95-0.07-26.31-0.07
		c1.59-5.64,2.58-11.13,4.68-16.16c5.41-12.9,13.57-23.84,25.42-31.58c6.78-4.43,14.28-6.97,22.52-6.97
		c12.82,0,25.2-2.02,36.72-8.05c16.04-8.39,25.94-21.57,30.53-38.91c0.46-1.75,0.69-3.56,1.25-6.51c5.72,3.5,11.43,6.37,16.42,10.18
		c11.91,9.1,19.53,21.29,23.75,35.6c2.65,9,2.37,18.12,1.48,27.4c-1.1,11.42-5.6,21.48-10.6,31.48c-1.29,2.58-2.9,3.77-6.02,3.68
		c-4.91-0.14-10.14-0.55-14.69,0.9c-6.53,2.08-9.55,7.26-8.56,15.61c0.62,5.23,5.54,10.07,11.18,10.37
		c6.61,0.36,13.24,0.11,19.86,0.29c11.22,0.3,21.86,2.49,31.13,9.44c10.2,7.64,16.8,17.46,18.77,30.12
		c0.6,3.88,0.68,7.86,0.77,11.79c0.1,4.41-0.77,4.97-5.24,4.65c-6.05-0.44-12.11-0.89-18.18-0.98c-10.25-0.16-20.5,0.12-30.75-0.09
		c-8.06-0.16-14.76,7.11-14.16,14.53c0.53,6.55,6.04,12.7,12.7,12.76c12.87,0.11,25.75,0.01,38.62,0.08
		c13.3,0.08,25.85,2.86,36.55,11.23c11.46,8.97,18.8,20.46,21.05,35.12c1.62,10.59,0.4,20.7-3.85,30.43
		c-5.96,13.63-16.06,23.14-29.69,28.96c-7.46,3.18-15.28,4-23.34,3.99c-72.74-0.09-145.49-0.07-218.23-0.08
		c-12.43,0-23.09-4.46-32.79-12.09c-10.9-8.57-17.22-19.92-19.74-33.12c-2.96-15.47,0.93-29.73,10.4-42.4
		c9.32-12.45,21.66-19.66,37.15-21.37c2.8-0.31,5.62-0.64,8.42-0.66c13-0.07,26-0.11,39,0c6.01,0.05,10.27-2.93,12.62-7.93
		c2.3-4.88,1.83-10.27-1.73-14.55c-2.5-3.01-6.12-4.85-10.26-4.84c-15.87,0.05-31.74,0.12-47.61,0.27
		C73.76,219.82,71.61,220.35,69,220.7z"/>
</g>
</svg>
