<?xml version="1.0" encoding="UTF-8"?>
<svg id="Layer_1" data-name="Layer 1" xmlns="http://www.w3.org/2000/svg" viewBox="0 0 46.53 46.43">
  <defs>
    <style>
      .cls-1 {
        fill: #2b2d42;
      }

      .cls-2 {
        fill: #fff;
      }

      .cls-3 {
        fill: #2b2d42;
      }

      .cls-4 {
        fill: #2b2d42;
      }
    </style>
  </defs>
  <path class="cls-4" d="m16.15,36.69c-1.33,0-2.66.01-3.98-.01-.25,0-.51-.15-.75-.27-.51-.24-1.01-.53-1.53-.75-.6-.26-.8-.61-.64-1.23.02-.09.04-.18.04-.27.05-1.11,0-1.22-1.23-1.67-.49-.18-.7-.46-.65-.96.04-.44.08-.89.08-1.34,0-.12-.1-.28-.21-.34-.37-.21-.76-.41-1.16-.56-.42-.16-.62-.44-.58-.88.03-.37.05-.74.09-1.1.04-.35,0-.63-.41-.75-.32-.1-.61-.27-.91-.42-.56-.27-.75-.7-.64-1.32.06-.35.08-.71.07-1.06,0-.11-.14-.26-.26-.32-.35-.19-.72-.34-1.07-.51-.52-.25-.62-.5-.55-1.07.05-.43.03-.87,0-1.31,0-.09-.14-.21-.25-.26-.37-.2-.76-.37-1.14-.56-.28-.15-.5-.35-.48-.72.02-.35.17-.57.47-.73.97-.54,1.93-1.11,2.92-1.63.28-.15.64-.18.97-.18.49,0,.99.11,1.48.06.31-.03.62-.23.91-.39,2.58-1.47,5.15-2.95,7.72-4.42,3.24-1.86,6.48-3.71,9.73-5.57,1.21-.69,2.42-1.37,3.63-2.07.14-.08.27-.21.35-.34.17-.28.33-.57.44-.88.22-.61.6-1.02,1.18-1.32.88-.45,1.71-1,2.6-1.45.22-.11.59-.08.83.03.31.13.41.46.35.82-.07.45-.12.91-.16,1.37,0,.08.12.2.21.25.42.21.85.39,1.28.59.29.14.51.33.47.71-.04.49-.09.99-.08,1.48,0,.14.12.35.24.41.35.2.74.35,1.11.51.53.22.72.7.59,1.35-.07.34-.06.71-.07,1.06,0,.08.09.18.17.22.36.19.72.37,1.1.52.6.25.73.54.63,1.19-.07.41-.04.84-.02,1.26,0,.09.14.21.25.27.38.2.78.36,1.17.55.47.24.56.49.47,1-.07.42-.09.86-.11,1.29,0,.08.11.2.2.25.27.15.56.26.84.4,1.02.5,1.13.75.85,1.9-.13.56-.04.75.47,1.01.26.13.52.27.79.39.79.34.71.63.67,1.38,0,.09-.07.17-.08.26-.1.83-.07.87.69,1.26.29.14.57.29.86.44.54.28.58.94.06,1.25-1.07.63-2.16,1.25-3.25,1.85-.18.1-.42.1-.63.1-.56-.02-1.11-.08-1.67-.08-.16,0-.32.1-.47.18-1.84,1.04-3.68,2.08-5.52,3.13-1.44.82-2.87,1.66-4.31,2.49-2.32,1.33-4.63,2.65-6.95,3.98-.75.43-1.48.88-2.25,1.26-.37.18-.81.28-1.23.29-1.25.04-2.5.01-3.75.01ZM2.34,18.93c.19.11.35.23.53.29.49.17.66.52.61,1-.02.14-.02.28-.05.41-.19.81-.08,1.05.66,1.42.3.15.63.26.87.47.19.17.34.46.36.71.04.47-.09.96-.04,1.43.07.58.71.49,1.07.74.12.09.29.11.4.2.15.14.37.31.38.48.03.51-.02,1.02-.07,1.53-.03.27-.02.47.28.59.41.16.8.38,1.21.55.35.15.49.4.47.77-.03.48-.08.96-.08,1.43,0,.12.09.29.19.35.39.22.81.39,1.21.59.5.24.64.56.56,1.09-.06.4-.07.8-.09,1.2,0,.1.05.26.11.28.66.19,1.17.72,1.92.71,2-.03,4-.05,6,0,.95.03,1.8-.13,2.57-.68.15-.11.31-.19.47-.28,1.85-1.05,3.69-2.1,5.54-3.15,2.1-1.2,4.2-2.4,6.3-3.61,1.65-.95,3.29-1.93,4.96-2.85.74-.41,1.43-1.07,2.41-.71.02,0,.05-.03.1-.05-.35-.62-.7-1.25-1.06-1.87-2.46-4.2-4.92-8.4-7.38-12.61-.28-.49-.25-.95.09-1.16.35-.23.97-.01,1.22.42.39.68.77,1.36,1.17,2.03,2.18,3.73,4.35,7.46,6.53,11.18.35.6.71,1.2,1.08,1.81.44-.26.84-.49,1.28-.75-.27-.14-.53-.21-.69-.38-.2-.2-.42-.48-.43-.74-.03-.54.07-1.09.12-1.64-.29-.14-.53-.31-.81-.4-.91-.28-1.35-.88-1.1-1.8.24-.91-.24-1.26-.97-1.49-.79-.25-1.05-.81-.92-1.59.02-.1.06-.21.08-.31.13-.56.03-.76-.49-1.02-.25-.12-.49-.26-.75-.38-.66-.29-.82-.61-.66-1.3.21-.9.06-1.29-.8-1.63-.76-.3-1.23-.72-1.05-1.61.18-.89-.09-1.5-1.05-1.69-.13-.02-.27-.1-.36-.19-.17-.17-.42-.35-.44-.55-.05-.47-.02-.96.05-1.43.05-.31,0-.5-.3-.62-.13-.05-.24-.12-.37-.17-.79-.34-1.58-.67-1.26-1.79-.13,0-.2-.02-.25,0-.8.42-1.68.74-1.97,1.75-.08.29-.26.55-.42.81-.09.15-.21.32-.36.4-1.1.64-2.21,1.26-3.31,1.89-1.84,1.04-3.68,2.09-5.51,3.13-2.39,1.36-4.77,2.73-7.15,4.09-1.65.94-3.3,1.89-4.94,2.84-.95.55-1.87,1.14-3.05.91-.12-.02-.24-.05-.37-.04-.24.01-.51-.02-.71.08-.52.25-1.01.56-1.54.87Z"/>
  <path class="cls-1" d="m14.98,40.43c-.4.01-.71-.31-.71-.74,0-.43.3-.76.69-.76.4,0,.79.36.8.73.01.35-.4.75-.78.77Z"/>
  <path class="cls-1" d="m18.01,39.65c.02-.42.35-.74.74-.71.39.03.78.42.76.78-.02.36-.45.73-.83.72-.39-.01-.68-.35-.67-.78Z"/>
  <path class="cls-1" d="m12.69,43.43c-.4,0-.69-.34-.68-.77,0-.42.33-.74.72-.73.39.02.78.4.77.76,0,.35-.44.74-.81.73Z"/>
  <path class="cls-1" d="m16.45,41.94c.39,0,.79.35.81.72.02.35-.4.76-.78.77-.39.01-.71-.31-.72-.73,0-.43.29-.76.69-.76Z"/>
  <path class="cls-1" d="m20.22,43.43c-.4,0-.7-.32-.71-.74,0-.43.3-.76.7-.75.39,0,.79.37.8.74,0,.35-.41.75-.79.76Z"/>
  <path class="cls-1" d="m11.22,44.94c.39.01.78.39.78.75,0,.35-.43.75-.8.75-.39,0-.7-.33-.69-.76,0-.43.32-.75.71-.74Z"/>
  <path class="cls-1" d="m14.97,46.43c-.4,0-.71-.31-.71-.74,0-.43.3-.76.7-.75.39,0,.79.37.8.73,0,.35-.41.75-.79.76Z"/>
  <path class="cls-1" d="m18.68,46.43c-.39-.01-.68-.35-.67-.78.01-.42.34-.74.74-.71.39.03.78.42.76.77-.02.35-.45.73-.83.72Z"/>
  <path class="cls-1" d="m22.46,46.43c-.4,0-.7-.32-.7-.75,0-.43.31-.75.71-.74.39,0,.79.38.79.74,0,.35-.42.75-.8.75Z"/>
  <path class="cls-2" d="m2.34,18.93c.53-.31,1.02-.62,1.54-.87.2-.1.47-.07.71-.08.12,0,.25.02.37.04,1.18.23,2.1-.36,3.05-.91,1.64-.96,3.29-1.9,4.94-2.84,2.38-1.37,4.77-2.73,7.15-4.09,1.84-1.05,3.67-2.09,5.51-3.13,1.1-.63,2.21-1.25,3.31-1.89.15-.09.27-.25.36-.4.16-.26.34-.52.42-.81.29-1.01,1.17-1.33,1.97-1.75.05-.03.12,0,.25,0-.33,1.12.46,1.46,1.26,1.79.12.05.24.13.37.17.3.12.34.31.3.62-.07.47-.1.96-.05,1.43.02.2.27.39.44.55.09.09.23.16.36.19.96.19,1.23.8,1.05,1.69-.18.89.28,1.31,1.05,1.61.85.34,1.01.73.8,1.63-.17.7,0,1.01.66,1.3.25.11.5.25.75.38.52.26.62.46.49,1.02-.02.1-.06.2-.08.31-.13.78.14,1.34.92,1.59.73.23,1.21.58.97,1.49-.24.92.19,1.52,1.1,1.8.27.08.52.25.81.4-.05.55-.15,1.1-.12,1.64.01.26.24.54.43.74.16.17.42.24.69.38-.44.26-.83.49-1.28.75-.36-.61-.73-1.21-1.08-1.81-2.18-3.73-4.36-7.45-6.53-11.18-.39-.67-.78-1.35-1.17-2.03-.25-.44-.87-.65-1.22-.42-.34.22-.38.68-.09,1.16,2.46,4.2,4.92,8.4,7.38,12.61.36.62.71,1.25,1.06,1.87-.05.03-.08.06-.1.05-.98-.36-1.67.31-2.41.71-1.67.92-3.3,1.9-4.96,2.85-2.1,1.21-4.2,2.41-6.3,3.61-1.84,1.05-3.69,2.1-5.54,3.15-.16.09-.32.17-.47.28-.77.55-1.62.71-2.57.68-2-.06-4-.04-6,0-.75.01-1.26-.52-1.92-.71-.06-.02-.11-.18-.11-.28.01-.4.03-.8.09-1.2.08-.53-.06-.85-.56-1.09-.4-.2-.82-.37-1.21-.59-.1-.06-.2-.23-.19-.35,0-.48.05-.96.08-1.43.02-.36-.11-.62-.47-.77-.41-.17-.8-.39-1.21-.55-.3-.12-.31-.32-.28-.59.05-.51.1-1.02.07-1.53,0-.17-.23-.34-.38-.48-.11-.1-.28-.12-.4-.2-.36-.25-1-.16-1.07-.74-.06-.47.08-.96.04-1.43-.02-.25-.17-.54-.36-.71-.24-.21-.57-.33-.87-.47-.74-.37-.85-.61-.66-1.42.03-.13.04-.27.05-.41.05-.49-.11-.84-.61-1-.18-.06-.34-.18-.53-.29Zm11.91,14.51s-.04-.17-.12-.3c-.3-.53-.61-1.06-.92-1.59-1.34-2.29-2.68-4.57-4.01-6.86-.41-.7-.8-1.41-1.23-2.1-.22-.35-.68-.45-1.02-.26-.38.21-.48.56-.26.99.08.16.18.32.27.48,1.37,2.36,2.74,4.71,4.11,7.07.61,1.04,1.23,2.08,1.85,3.12.17.29.43.44.77.32.33-.12.61-.31.56-.86Zm10.43-21.99c-.02-.49-.21-.73-.56-.72-.25,0-.51.09-.73.21-1.45.82-2.89,1.66-4.33,2.49-1.82,1.04-3.64,2.07-5.46,3.11-.44.25-.47.68-.12,1.04.26.27.52.19.79.04,2.24-1.27,4.49-2.54,6.73-3.82,1.12-.64,2.23-1.28,3.33-1.94.17-.1.28-.31.36-.41Zm-.97,19.71c.38-.17.66-.27.92-.42,2.82-1.61,5.63-3.23,8.45-4.84.37-.21.54-.62.37-.92-.17-.31-.66-.4-1.03-.19-2.61,1.5-5.23,2.99-7.84,4.49-.42.24-.85.49-1.22.8-.13.11-.18.43-.12.6.06.18.3.31.47.48Zm-2.91,1.41c-.14-.17-.26-.43-.43-.47-.25-.06-.62-.05-.79.1-.64.55-1.21,1.17-1.8,1.77-.07.07-.15.2-.13.28.07.23.13.56.3.64.19.09.57.06.74-.08.64-.54,1.23-1.14,1.83-1.73.11-.11.16-.29.28-.5ZM29.62,6.79c-.23.13-.5.21-.69.39-.52.47-1,.99-1.5,1.48-.38.38-.41.69-.1,1,.24.24.66.21.98-.08.56-.52,1.11-1.05,1.65-1.58.09-.08.17-.19.21-.3.19-.44-.06-.83-.55-.91Zm9.03,16.46c-.01-.66-.38-.91-.92-.79-.42.09-.84.17-1.26.27-.24.06-.53.07-.69.22-.17.16-.33.51-.26.69.09.21.43.48.64.46.69-.08,1.38-.25,2.05-.45.2-.06.35-.31.43-.39Zm-27.39-4.24c0-.45-.23-.75-.59-.69-.7.12-1.4.3-2.1.44-.45.09-.45.44-.39.75.06.33.33.53.68.47.63-.11,1.25-.23,1.87-.4.28-.08.63-.17.53-.58Z"/>
  <path class="cls-4" d="m14.25,33.44c.05.55-.24.73-.56.86-.34.13-.59-.02-.77-.32-.62-1.04-1.24-2.08-1.85-3.12-1.37-2.35-2.74-4.71-4.11-7.07-.09-.16-.19-.32-.27-.48-.21-.43-.12-.77.26-.99.34-.19.8-.1,1.02.26.42.69.82,1.4,1.23,2.1,1.34,2.29,2.68,4.57,4.01,6.86.31.53.62,1.06.92,1.59.07.13.11.28.12.3Z"/>
  <path class="cls-4" d="m24.68,11.45c-.08.09-.19.3-.36.41-1.1.66-2.22,1.3-3.33,1.94-2.24,1.28-4.48,2.55-6.73,3.82-.27.15-.53.23-.79-.04-.35-.36-.32-.79.12-1.04,1.82-1.04,3.64-2.07,5.46-3.11,1.45-.83,2.88-1.67,4.33-2.49.22-.12.49-.21.73-.21.36,0,.54.24.56.72Z"/>
  <path class="cls-4" d="m23.71,31.16c-.17-.17-.41-.29-.47-.48-.06-.17,0-.49.12-.6.37-.31.8-.56,1.22-.8,2.61-1.5,5.23-3,7.84-4.49.37-.21.86-.12,1.03.19.17.3,0,.71-.37.92-2.82,1.61-5.63,3.23-8.45,4.84-.26.15-.55.25-.92.42Z"/>
  <path class="cls-3" d="m20.81,32.57c-.12.22-.17.39-.28.5-.6.59-1.19,1.19-1.83,1.73-.16.14-.54.17-.74.08-.17-.08-.23-.41-.3-.64-.02-.07.06-.21.13-.28.59-.6,1.17-1.22,1.8-1.77.17-.15.54-.15.79-.1.17.04.28.3.43.47Z"/>
  <path class="cls-4" d="m29.62,6.79c.5.08.74.48.55.91-.05.11-.13.21-.21.3-.55.53-1.09,1.06-1.65,1.58-.31.29-.74.31-.98.08-.31-.31-.28-.62.1-1,.5-.5.98-1.01,1.5-1.48.19-.17.46-.26.69-.39Z"/>
  <path class="cls-4" d="m38.65,23.25c-.08.08-.23.33-.43.39-.67.2-1.36.37-2.05.45-.2.02-.55-.24-.64-.46-.07-.17.09-.52.26-.69.15-.15.45-.17.69-.22.42-.1.84-.18,1.26-.27.54-.12.9.13.92.79Z"/>
  <path class="cls-4" d="m11.26,19.01c.1.41-.25.5-.53.58-.61.17-1.24.29-1.87.4-.34.06-.61-.14-.68-.47-.06-.31-.06-.66.39-.75.7-.14,1.4-.32,2.1-.44.35-.06.59.24.59.69Z"/>
</svg>