<?xml version="1.0" encoding="utf-8"?>
<!-- Generator: Adobe Illustrator 27.7.0, SVG Export Plug-In . SVG Version: 6.00 Build 0)  -->
<svg version="1.1" id="Layer_1" xmlns="http://www.w3.org/2000/svg" xmlns:xlink="http://www.w3.org/1999/xlink" x="0px" y="0px"
	 viewBox="0 0 682.67 682.67" style="enable-background:new 0 0 682.67 682.67;" xml:space="preserve">
<style type="text/css">
	.st0{fill:#FFFFFF;}
</style>
<g>
	<path d="M192.66,507.59c0-45.97,0.36-91.94-0.14-137.9c-0.27-25.05,9.37-45.58,26.28-62.95c13.19-13.55,30-20.71,48.62-23.35
		c3.93-0.56,5.53-1.9,5.2-5.74c-0.14-1.65,0-3.32-0.03-4.97c-0.08-5.19,1.63-11.59-0.8-15.21c-2.4-3.59-9.22-0.82-14.08-1.25
		c-6.05-0.53-11.85-6.7-11.89-12.97c-0.07-10.9-0.48-21.82,0.12-32.69c0.34-6.25-1.8-7.35-7.45-7.11
		c-10.63,0.46-15.7-2.68-18.45-10.07c-2.82-7.58,1.81-16.33,9.79-16.85c11.8-0.76,23.69-1.14,35.47-0.44
		c6.89,0.41,9.39-2.14,10.22-8.17c2.82-20.38,5.51-40.77,8.59-61.11c3.05-20.07,7.11-40,9.58-60.13
		c1.38-11.25,3.77-22.34,4.64-33.65c0.6-7.76,5.78-12.73,13.74-12.84c17.53-0.24,35.07-0.26,52.6-0.08
		c7.91,0.08,13.69,4.76,14.43,12.99c1.59,17.55,5.27,34.75,7.5,52.19c2.56,20.11,6.53,40.04,9.64,60.09
		c2.16,13.93,4.12,27.9,5.74,41.9c0.7,6.01,2.37,9.14,9.37,8.73c10.86-0.64,21.79-0.15,32.69-0.16c9.09,0,17.57,7.72,13.07,18.78
		c-1.88,4.62-5.61,7.17-10.62,7.52c-2.36,0.17-4.75,0.14-7.1-0.03c-5.34-0.37-7.4,1.75-7.14,7.33c0.43,9.46,0.14,18.95,0.11,28.43
		c-0.04,12.46-5.79,18.81-18,18.08c-7.52-0.45-9.4,2.08-8.53,8.92c0.51,3.96,0.67,8.15-0.05,12.05c-1.06,5.72,2.73,6.92,6.5,7.57
		c36.09,6.21,58.97,26.98,69.62,61.88c2.75,9.02,3.75,18.29,3.78,27.41c0.32,88.38,0.28,176.76,0.12,265.13
		c-0.03,18.39-6.54,33.44-24.99,40.8c-4.71,1.87-9.66,2.77-14.78,2.77c-72.98,0.02-145.96,0.44-218.93-0.16
		c-18.54-0.15-34.28-15.93-34.63-34.98c-0.86-46.58-0.28-93.18-0.28-139.77C192.35,507.59,192.51,507.59,192.66,507.59z
		 M339.01,549.08c38.13,0,76.27-0.04,114.4,0.06c3.82,0.01,5.82-0.17,5.79-5.1c-0.23-40.97-0.2-81.94-0.04-122.91
		c0.02-4.28-0.98-5.58-5.46-5.57c-76.26,0.15-152.53,0.15-228.8,0c-4.78-0.01-5.91,1.41-5.89,5.99c0.16,40.5,0.19,81-0.03,121.49
		c-0.03,5.11,1.53,6.17,6.35,6.14C263.22,548.99,301.12,549.08,339.01,549.08z M339.53,575.86c-33.41,0-66.82-0.08-100.23,0.06
		c-6.54,0.03-14.98-2.87-19.1,1.29c-3.77,3.81-1,12.16-1.06,18.51c-0.14,15.16-0.31,30.33,0.05,45.49
		c0.23,9.6,2.14,14.7,14.54,14.65c69.9-0.3,139.8-0.4,209.69,0.11c11.79,0.09,15.64-7.41,15.63-16.19
		c-0.01-19.19-0.24-38.39,0.15-57.57c0.11-5.51-1.53-6.5-6.67-6.46C414.88,575.97,377.2,575.86,339.53,575.86z M338.76,389.12
		c5.68,0,11.37,0,17.05,0c32.44,0,64.88,0.03,97.32-0.07c2.3-0.01,5.9,1.82,5.91-3.36c0.01-12.15,0.27-24.46-3.95-35.92
		c-9.37-25.47-29.77-40.46-60.67-40.53c-40.65-0.09-81.34-1.85-121.96,1.07c-20.39,1.46-35.19,12.16-45.68,29.47
		c-8.1,13.37-7.71,28.08-7.85,42.88c-0.05,5.53,1.73,6.61,6.87,6.58C263.46,389.03,301.11,389.12,338.76,389.12z M338.94,175.86
		c10.65,0,21.29-0.04,31.94,0.02c3.99,0.02,7.18,0.31,4.7-5.69c-1.62-3.93-1.29-8.65-1.92-13c-1.97-13.69-3.91-27.38-5.99-41.05
		c-2.18-14.33-4.78-28.61-6.7-42.98c-1.86-13.96-5.07-27.73-6.08-41.83c-0.13-1.8-0.62-5.05-4.63-4.84
		c-7.55,0.39-15.14,0.2-22.71,0.07c-2.85-0.05-4.95,1.2-4.94,3.8c0.04,7.05-2.09,13.71-3.01,20.58
		c-2.32,17.17-4.55,34.36-7.18,51.48c-3.51,22.75-7.44,45.43-10.98,68.17c-0.47,3.01,0.21,5.6,4.86,5.41
		C317.16,175.57,328.06,175.86,338.94,175.86z M338.71,229.2c20.59,0,41.17-0.12,61.75,0.1c4.29,0.05,5.89-0.97,5.57-5.48
		c-0.41-5.65-0.25-11.36-0.04-17.03c0.13-3.46-1.22-4.41-4.55-4.4c-41.41,0.09-82.81,0.11-124.22-0.03
		c-3.88-0.01-4.84,1.31-4.68,4.89c0.25,5.43,0.41,10.91-0.04,16.31c-0.4,4.81,1.37,5.79,5.87,5.74
		C298.48,229.07,318.6,229.2,338.71,229.2z M339.26,282.58c6.39,0,12.79,0.19,19.17-0.05c6.8-0.26,16.08,3.06,19.69-1.34
		c3.41-4.15,0.7-13.11,1.23-19.91c0.36-4.63-1.45-5.4-5.61-5.36c-22.95,0.19-45.91,0.18-68.86,0.01c-4.03-0.03-6.1,0.48-5.68,5.27
		c0.47,5.4,0.35,10.89,0.03,16.31c-0.24,4.12,1.26,5.24,5.25,5.16C316.06,282.43,327.66,282.58,339.26,282.58z"/>
	<path class="st0" d="M339.01,549.08c-37.9,0-75.79-0.09-113.69,0.11c-4.82,0.02-6.38-1.03-6.35-6.14c0.22-40.5,0.19-81,0.03-121.49
		c-0.02-4.57,1.12-6,5.89-5.99c76.26,0.15,152.53,0.15,228.8,0c4.48-0.01,5.48,1.29,5.46,5.57c-0.16,40.97-0.19,81.94,0.04,122.91
		c0.03,4.93-1.97,5.11-5.79,5.1C415.28,549.04,377.15,549.08,339.01,549.08z M365.37,469.17c0,0.02,0,0.04,0,0.06
		c17.29,0,34.59-0.07,51.88,0.04c5.27,0.04,9.03-2.25,12.09-6.27c3.35-4.4,3.19-8.79,0.63-13.58c-3.1-5.81-8.63-6.83-14.05-6.87
		c-34.35-0.21-68.7-0.13-103.06-0.05c-7.51,0.02-14.68,6.88-14.56,13.54c0.11,6.44,7.26,13.06,14.47,13.09
		C330.3,469.22,347.83,469.17,365.37,469.17z M271.28,455.95c1.84-7.06-4.86-12.37-12.68-13.29c-6.92-0.81-12.41,5.8-13.06,13.17
		c-0.63,7.19,8.02,13.62,13,13.61C265.47,469.43,271.26,463.22,271.28,455.95z"/>
	<path class="st0" d="M339.53,575.86c37.67,0,75.35,0.11,113.02-0.12c5.14-0.03,6.78,0.96,6.67,6.46
		c-0.4,19.18-0.16,38.38-0.15,57.57c0,8.78-3.85,16.27-15.63,16.19c-69.89-0.5-139.8-0.4-209.69-0.11
		c-12.41,0.05-14.32-5.05-14.54-14.65c-0.36-15.15-0.19-30.32-0.05-45.49c0.06-6.35-2.71-14.7,1.06-18.51
		c4.11-4.16,12.56-1.26,19.1-1.29C272.71,575.79,306.12,575.86,339.53,575.86z"/>
	<path class="st0" d="M338.76,389.12c-37.65,0-75.3-0.1-112.95,0.11c-5.13,0.03-6.92-1.06-6.87-6.58c0.14-14.8-0.25-29.5,7.85-42.88
		c10.48-17.31,25.29-28.01,45.68-29.47c40.61-2.91,81.31-1.16,121.96-1.07c30.9,0.07,51.3,15.06,60.67,40.53
		c4.22,11.46,3.96,23.78,3.95,35.92c0,5.18-3.6,3.35-5.91,3.36c-32.44,0.1-64.88,0.07-97.32,0.07
		C350.13,389.12,344.44,389.12,338.76,389.12z"/>
	<path class="st0" d="M338.94,175.86c-10.88,0-21.78-0.3-32.64,0.14c-4.65,0.19-5.33-2.4-4.86-5.41
		c3.54-22.74,7.48-45.43,10.98-68.17c2.64-17.12,4.86-34.31,7.18-51.48c0.93-6.87,3.05-13.53,3.01-20.58
		c-0.01-2.6,2.09-3.85,4.94-3.8c7.57,0.12,15.16,0.32,22.71-0.07c4.01-0.21,4.5,3.04,4.63,4.84c1.01,14.1,4.21,27.87,6.08,41.83
		c1.92,14.37,4.52,28.64,6.7,42.98c2.08,13.67,4.02,27.36,5.99,41.05c0.63,4.35,0.29,9.08,1.92,13c2.48,5.99-0.7,5.71-4.7,5.69
		C360.23,175.82,349.59,175.86,338.94,175.86z"/>
	<path class="st0" d="M338.71,229.2c-20.11,0-40.23-0.13-60.33,0.1c-4.5,0.05-6.27-0.93-5.87-5.74c0.45-5.4,0.29-10.88,0.04-16.31
		c-0.16-3.58,0.8-4.9,4.68-4.89c41.41,0.14,82.81,0.11,124.22,0.03c3.33-0.01,4.68,0.94,4.55,4.4c-0.21,5.67-0.36,11.38,0.04,17.03
		c0.32,4.5-1.28,5.52-5.57,5.48C379.88,229.08,359.29,229.2,338.71,229.2z"/>
	<path class="st0" d="M339.26,282.58c-11.6,0-23.19-0.15-34.79,0.08c-3.99,0.08-5.49-1.05-5.25-5.16
		c0.32-5.42,0.44-10.91-0.03-16.31c-0.42-4.78,1.66-5.29,5.68-5.27c22.95,0.17,45.91,0.18,68.86-0.01c4.15-0.03,5.97,0.73,5.61,5.36
		c-0.53,6.8,2.18,15.76-1.23,19.91c-3.61,4.4-12.89,1.08-19.69,1.34C352.04,282.77,345.64,282.58,339.26,282.58z"/>
	<path d="M365.37,469.17c-17.53,0-35.06,0.05-52.59-0.03c-7.2-0.03-14.35-6.65-14.47-13.09c-0.12-6.66,7.05-13.53,14.56-13.54
		c34.35-0.08,68.71-0.16,103.06,0.05c5.42,0.03,10.95,1.06,14.05,6.87c2.55,4.79,2.72,9.17-0.63,13.58
		c-3.05,4.01-6.82,6.3-12.09,6.27c-17.29-0.12-34.59-0.04-51.88-0.04C365.37,469.21,365.37,469.19,365.37,469.17z"/>
	<path d="M271.28,455.95c-0.02,7.27-5.82,13.47-12.73,13.48c-4.97,0.01-13.63-6.42-13-13.61c0.65-7.37,6.14-13.98,13.06-13.17
		C266.42,443.58,273.13,448.9,271.28,455.95z"/>
</g>
</svg>
