<?xml version="1.0" encoding="utf-8"?>
<!-- Generator: Adobe Illustrator 27.7.0, SVG Export Plug-In . SVG Version: 6.00 Build 0)  -->
<svg version="1.1" id="Layer_1" xmlns="http://www.w3.org/2000/svg" xmlns:xlink="http://www.w3.org/1999/xlink" x="0px" y="0px"
	 viewBox="0 0 384 384" style="enable-background:new 0 0 384 384;" xml:space="preserve">
<style type="text/css">
	.st0{fill:#2B2D42;}
	.st1{fill:#FFFFFF;}
</style>
<g>
	<path class="st0" d="M0,282.75c0-8,0-16,0-24c0.76-3.73,1.54-7.47,2.29-11.2c4.15-20.5,13.06-38.71,27.79-53.54
		C82.88,140.84,135.9,87.88,188.99,34.99c5.89-5.87,12.45-11.2,19.2-16.08c11.28-8.16,24.04-13.21,37.71-15.95
		c4.55-0.91,9.07-1.98,13.61-2.97c7.25,0,14.5,0,21.75,0c0.37,0.24,0.71,0.6,1.11,0.69c6.95,1.47,14.03,2.47,20.84,4.44
		c20.91,6.05,38.43,17.41,52.8,33.89c12.57,14.41,20.72,30.89,25,49.41c1.04,4.51,2,9.05,3,13.57c0,7.75,0,15.5,0,23.25
		c-0.5,1.03-1.34,2.03-1.45,3.11c-1.17,11.59-4.64,22.51-9.5,33.02c-5.87,12.69-14.07,23.77-23.91,33.63
		C298.9,245.32,248.6,295.57,198.35,345.87c-7.83,7.84-16.08,15.16-25.57,20.96c-10.78,6.59-22.09,11.88-34.63,14.2
		c-4.82,0.89-9.6,1.97-14.39,2.97c-7.5,0-15,0-22.5,0c-6.77-1.5-13.64-2.69-20.31-4.57c-16.31-4.6-30.92-12.58-43.21-24.24
		c-6.44-6.12-12.48-12.84-17.71-20.01c-8.92-12.21-14.77-25.96-17.73-40.87C1.53,290.46,0.76,286.6,0,282.75z M114.03,354.22
		c4.24-0.45,10.49-0.48,16.42-1.86c15.01-3.51,28.63-10.18,39.63-21.15c53.46-53.29,106.78-106.73,160.19-160.07
		c6.41-6.4,11.52-13.75,15.34-21.84c8.41-17.77,10.71-36.56,5.94-55.59c-6.16-24.57-20.67-43.14-43.45-54.66
		c-16.44-8.31-33.93-10.56-52.12-7.58c-17.05,2.79-31.77,10.29-43.93,22.42c-51.42,51.26-102.74,102.64-154.03,154.03
		c-4.09,4.1-7.99,8.47-11.52,13.06c-14.61,19-19.4,40.76-15.52,63.98c3.3,19.79,12.89,36.55,28.65,49.6
		C74.92,347.24,92.31,353.75,114.03,354.22z"/>
	<path class="st1" d="M114.03,354.22c-21.72-0.48-39.12-6.98-54.42-19.66c-15.75-13.05-25.34-29.81-28.65-49.6
		c-3.87-23.22,0.92-44.98,15.52-63.98c3.53-4.59,7.42-8.96,11.52-13.06c51.29-51.39,102.61-102.77,154.03-154.03
		c12.17-12.13,26.89-19.62,43.93-22.42c18.19-2.98,35.68-0.73,52.12,7.58c22.78,11.52,37.29,30.09,43.45,54.66
		c4.77,19.03,2.47,37.82-5.94,55.59c-3.83,8.09-8.93,15.43-15.34,21.84c-53.41,53.34-106.72,106.78-160.19,160.07
		c-11,10.97-24.62,17.64-39.63,21.15C124.52,353.74,118.27,353.77,114.03,354.22z M166.78,150.44c-7.86,0.79-12.45,3.52-14.85,9.31
		c-2.62,6.33-1.38,12.08,3.36,16.86c19.11,19.23,38.21,38.47,57.54,57.48c5.58,5.48,10.44,6.02,17.01,2.65
		c9.5-4.88,12.21-15.81,3.19-25c-18.55-18.91-37.28-37.63-56.26-56.11C173.86,152.79,169.27,151.68,166.78,150.44z"/>
	<path class="st0" d="M166.78,150.44c2.49,1.24,7.08,2.35,9.99,5.18c18.97,18.48,37.71,37.2,56.26,56.11
		c9.02,9.19,6.31,20.12-3.19,25c-6.56,3.37-11.43,2.83-17.01-2.65c-19.33-19.01-38.44-38.24-57.54-57.48
		c-4.74-4.77-5.98-10.53-3.36-16.86C154.33,153.96,158.92,151.23,166.78,150.44z"/>
</g>
</svg>
