<?xml version="1.0" encoding="UTF-8"?>
<svg id="Layer_1" data-name="Layer 1" xmlns="http://www.w3.org/2000/svg" viewBox="0 0 512 321.31">
  <defs>
    <style>
      .cls-1 {
        fill: #fff;
      }

      .cls-2 {
        fill: #2b2d42;
      }

      .cls-3 {
        fill: #fefefe;
      }
    </style>
  </defs>
  <path class="cls-2" d="m0,176.94C0,165.94,0,154.94,0,143.94c.35-.83.88-1.62,1.04-2.49,1.37-7.47,2.17-15.08,4.09-22.4,6.74-25.69,19.39-48.36,37.29-67.84,14.63-15.93,32.01-28.29,51.91-37.14C114.64,5.03,135.88.67,157.97.02c4.24-.13,8.52.43,12.74.93,8.72,1.04,17.53,1.71,26.1,3.52,20.45,4.32,38.87,13.48,56.27,24.88,1.15.76,3.53.73,4.8.05,9.29-5,18.18-10.8,27.69-15.32C305.15,4.78,326.11.62,347.68.06c8.32-.21,16.69,1.12,25.03,1.87,17.41,1.57,33.74,7.04,49.31,14.63,24.54,11.97,44.79,29.27,60.48,51.59,12.68,18.02,21.66,37.78,25.57,59.66,1.03,5.76,2.6,11.42,3.93,17.12v32c-.67,1.38-1.8,2.72-1.93,4.15-1.6,17.95-7.16,34.79-15.22,50.7-9.6,18.95-21.7,36.28-38.74,49.37-10.6,8.14-21.43,16.3-33.17,22.55-17.61,9.37-36.76,14.4-56.81,16.45-16.56,1.69-32.85.87-48.89-2.69-21.07-4.67-40.71-13.07-58.22-25.96-2.4-1.76-4.52-1.57-7.07-.09-9.67,5.63-19.18,11.64-29.28,16.36-7.76,3.63-16.21,6.01-24.57,8.07-7.99,1.97-16.27,2.77-24.41,4.14-15.81,2.66-31.54,1-46.93-2.3-16.35-3.51-32.37-8.94-46.41-18.23-12.03-7.96-23.56-16.87-34.36-26.44-6.65-5.89-11.8-13.58-17.1-20.85-13.09-17.94-21.56-37.98-25.86-59.77C2.01,187.25,1.01,182.09,0,176.94Zm106.64,101.93c38.36,20,95.49,17.08,138.21-19.49,47.86-40.96,56.11-104.28,33.98-152.72-57.35,57.35-114.81,114.82-172.19,172.21ZM213.14,41.86c-39.26-19.43-97.64-15.76-137.7,19.17-50.95,44.43-54.9,110.87-33.85,152.41,57.09-57.1,114.3-114.32,171.55-171.58Zm65.56,226.25c60.31,45.19,162.99,22.76,194.52-62.72-1.94,0-3.74,0-5.53,0-41.16,0-82.31,0-123.47,0-8.66,0-17.33.07-25.99-.04-3.01-.04-4.59.69-5.53,4.05-1.58,5.69-3.86,11.22-6.29,16.62-6.9,15.38-15.99,29.37-27.72,42.09Zm-.01-216.35c1.06,1.57,1.81,3.03,2.88,4.21,14.31,15.75,24.04,34.18,30.82,54.14,1.44,4.24,3.03,5.25,7.11,5.24,49.5-.12,99-.08,148.5-.08,1.64,0,3.28,0,5.05,0C451.71,48.12,359.75.58,278.69,51.75Zm-37.79,7.34c-60.81,60.78-121.63,121.59-182.99,182.91,6.72,6.81,13.65,13.83,20.51,20.78,61.79-61.79,122.55-122.55,182.28-182.28-6.6-7.13-13.23-14.3-19.8-21.42Zm240.38,86.56h-160.88v29.53h160.88v-29.53Z"/>
  <path class="cls-3" d="m106.64,278.87c57.38-57.39,114.85-114.86,172.19-172.21,22.13,48.44,13.88,111.76-33.98,152.72-42.73,36.57-99.85,39.49-138.21,19.49Z"/>
  <path class="cls-1" d="m213.14,41.86c-57.25,57.26-114.45,114.48-171.55,171.58-21.06-41.54-17.1-107.98,33.85-152.41,40.05-34.93,98.44-38.6,137.7-19.17Z"/>
  <path class="cls-1" d="m278.71,268.1c11.73-12.71,20.81-26.71,27.72-42.09,2.43-5.4,4.71-10.94,6.29-16.62.93-3.35,2.52-4.08,5.53-4.05,8.66.1,17.33.04,25.99.04,41.16,0,82.31,0,123.47,0,1.79,0,3.59,0,5.53,0-31.53,85.49-134.21,107.92-194.52,62.72Z"/>
  <path class="cls-1" d="m278.69,51.75c81.06-51.18,173.02-3.63,194.35,63.51-1.77,0-3.41,0-5.05,0-49.5,0-99-.04-148.5.08-4.09.01-5.67-.99-7.11-5.24-6.78-19.96-16.51-38.39-30.82-54.14-1.07-1.18-1.82-2.65-2.88-4.21Z"/>
  <path class="cls-3" d="m240.9,59.09c6.58,7.11,13.21,14.28,19.8,21.42-59.73,59.73-120.49,120.49-182.28,182.28-6.87-6.96-13.79-13.97-20.51-20.78,61.35-61.33,122.18-122.13,182.99-182.91Z"/>
  <path class="cls-1" d="m481.28,145.65v29.53h-160.88v-29.53h160.88Z"/>
</svg>