<?xml version="1.0" encoding="utf-8"?>
<!-- Generator: Adobe Illustrator 27.7.0, SVG Export Plug-In . SVG Version: 6.00 Build 0)  -->
<svg version="1.1" id="Layer_1" xmlns="http://www.w3.org/2000/svg" xmlns:xlink="http://www.w3.org/1999/xlink" x="0px" y="0px"
	 viewBox="0 0 112.4 112.4" style="enable-background:new 0 0 112.4 112.4;" xml:space="preserve">
<style type="text/css">
	.st0{fill:#2B2D42;}
	.st1{fill:#FFFFFF;}
</style>
<g>
	<path class="st0" d="M60.2,112.4c-2.8,0-5.6,0-8.3,0c-0.2-0.1-0.4-0.2-0.5-0.2c-2.1-0.3-4.3-0.5-6.4-0.9c-4.6-0.9-9-2.4-13.2-4.5
		c-4.1-2.1-7.9-4.6-11.5-7.5c-3.5-2.9-6.5-6.2-9.2-9.8c-2.8-3.8-5.1-7.9-6.9-12.3C2,71.7,0.6,65.9,0.3,60c-0.3-5.3,0-10.6,1.2-15.9
		c1.2-5.1,2.9-10,5.4-14.5c3.4-6.3,7.9-11.8,13.4-16.4c3.2-2.7,6.7-5,10.4-6.9c4.8-2.4,9.7-4.3,15.1-5c3.4-0.5,6.8-0.9,10.2-1.1
		c2-0.1,4,0.2,5.9,0.4c2.2,0.2,4.4,0.5,6.5,1c5.2,1.2,10.1,3,14.7,5.6c4.1,2.3,8,5,11.4,8.2c2.3,2.1,4.4,4.5,6.3,6.9
		c3.6,4.7,6.4,9.9,8.3,15.5c1.2,3.6,2.1,7.2,2.6,10.9c0.1,1.1,0.4,2.3,0.6,3.4c0,2.8,0,5.7,0,8.5c-0.1,0.1-0.2,0.2-0.2,0.3
		c-0.3,2.1-0.5,4.2-0.9,6.2c-1,4.8-2.5,9.5-4.8,14c-2.2,4.4-5,8.4-8.2,12.2c-3.2,3.7-7,6.9-11,9.6c-3.2,2.2-6.6,4-10.3,5.4
		c-4.4,1.8-9,3-13.7,3.5C62.2,112.1,61.2,112.2,60.2,112.4z M12.6,62.3c1.1,8,4.2,15.2,9.2,21.4c5,6.4,11.4,11,19.1,13.9
		c7.6,2.9,15.4,3.5,23.4,2c17.6-3.2,33.2-18,35.6-37.4C70.7,62.3,41.6,62.3,12.6,62.3z M99.9,50.3c-1.8-11.8-7.3-21.3-16.6-28.7
		c-9.3-7.3-20-10.2-31.7-9.1C34.8,14,16,27.1,12.6,50.3C41.7,50.3,70.7,50.3,99.9,50.3z"/>
	<path class="st1" d="M12.6,62.3c29.1,0,58.1,0,87.2,0c-2.4,19.3-18,34.2-35.6,37.4c-8,1.4-15.8,0.8-23.4-2
		c-7.6-2.9-14-7.5-19.1-13.9C16.8,77.5,13.7,70.3,12.6,62.3z"/>
	<path class="st1" d="M99.9,50.3c-29.2,0-58.2,0-87.3,0C16,27.1,34.8,14,51.6,12.5c11.7-1,22.4,1.8,31.7,9.1
		C92.6,28.9,98.1,38.5,99.9,50.3z"/>
</g>
</svg>
