<?xml version="1.0" encoding="utf-8"?>
<!-- Generator: Adobe Illustrator 27.7.0, SVG Export Plug-In . SVG Version: 6.00 Build 0)  -->
<svg version="1.1" id="Layer_1" xmlns="http://www.w3.org/2000/svg" xmlns:xlink="http://www.w3.org/1999/xlink" x="0px" y="0px"
	 viewBox="0 0 354.4 332.07" style="enable-background:new 0 0 354.4 332.07;" xml:space="preserve">
<style type="text/css">
	.st0{fill:#06d6a0;}
	.st1{fill:#2b2d42;}
</style>
<g>
	<path class="st0" d="M236.21,105.47c7.49-0.39,14.4-0.91,21.32-1.06c8-0.18,16,0.05,24-0.07c10.57-0.16,21.13-0.54,31.7-0.71
		c19.3-0.31,35.99,13.71,40.3,32.09c1.84,7.83,0.4,15.58-0.97,23.32c-1.48,8.38-2.78,16.79-4.18,25.18
		c-1.3,7.79-2.61,15.59-3.95,23.38c-1.42,8.26-2.9,16.5-4.31,24.76c-1.37,8.04-2.67,16.09-4.02,24.14
		c-1.4,8.38-2.66,16.79-4.26,25.13c-2.09,10.87-2.38,22.25-9.51,31.71c-7.46,9.89-16.84,16.63-29.33,17.53
		c-9.33,0.68-18.74,0.13-28.12,0.13c-8,0-16,0.08-24-0.02c-14.7-0.19-29.39-0.37-44.09-0.76c-19.9-0.52-38.89-5.18-57.08-13.19
		c-9.99-4.4-20.35-7.53-31.14-9.14c-0.73-0.11-2.07,0.99-2.44,1.83c-4.83,11.04-12.47,18.81-24.59,21.36
		c-2.75,0.58-5.6,0.85-8.41,0.87c-13.13,0.09-26.26-0.23-39.38,0.1c-15.68,0.4-29.15-10.66-33.32-26.33
		c-0.69-2.57-0.34-5.44-0.34-8.17c-0.01-54.27,0.08-108.54-0.07-162.81c-0.04-13.29,5.61-23.19,16.72-29.74
		c4.11-2.42,9.28-4.01,14.03-4.18c14.86-0.54,29.76-0.67,44.62-0.12c12.95,0.47,22.85,6.8,29.1,18.38c0.57,1.05,1.04,2.16,1.47,3.08
		c14.1-5.09,22.58-16.25,30.73-27.41c14.18-19.4,25.05-40.58,31.81-63.74c1.49-5.09,2.6-10.31,4.33-15.31
		c2.96-8.58,13.29-15.49,22.35-15.68c15.76-0.34,29.32,4.75,40.03,16.4c7.91,8.61,12.38,18.81,12.64,30.73
		c0.41,18.97-5.08,36.77-10.59,54.58C236.96,102.72,236.7,103.73,236.21,105.47z M108.35,277.87c2.43,0.23,4.66,0.25,6.81,0.67
		c14,2.72,27.34,7.47,40.44,13.05c10.86,4.63,22.2,7.71,34,8.58c7.67,0.57,15.37,0.63,23.06,0.8c13.56,0.3,27.13,0.6,40.7,0.74
		c11.62,0.12,23.25,0.04,34.87,0.02c6.37-0.01,11.4-4.98,12.2-11.26c1.05-8.18,2.48-16.31,3.87-24.45
		c1.62-9.46,3.46-18.88,5.05-28.34c1.4-8.27,2.5-16.58,3.9-24.85c1.87-11.02,3.93-22.01,5.87-33.02c1.72-9.8,3.11-19.67,5.14-29.4
		c2.29-10.96-2.74-17.59-13.99-17.49c-3.57,0.03-7.13,0.61-10.69,0.69c-13.94,0.31-27.88,0.56-41.82,0.76
		c-6.87,0.1-13.75-0.09-20.62,0.05c-6.13,0.12-11.69-1.53-16.96-4.55c-9.65-5.53-16.02-19.44-12.93-30.61
		c3.21-11.63,6.65-23.2,9.45-34.92c1.55-6.49,2.87-13.15,1.23-19.99c-1.92-8-10.89-14.87-18.82-13.98
		c-0.28,1.62-0.41,3.33-0.88,4.95c-5.64,19.64-13.31,38.47-24.05,55.85c-6.79,10.98-14.18,21.66-22.15,31.81
		c-4.9,6.24-11.13,11.54-17.25,16.69c-7.66,6.45-16.94,10-26.44,13.08C108.35,194.26,108.35,235.75,108.35,277.87z M29.54,216.13
		c0,26.87,0,53.74,0,80.61c0,5,0.76,5.75,5.81,5.76c12.37,0.01,24.74,0.01,37.11,0c4.96,0,6.26-1.33,6.26-6.44
		c0.01-53.24,0.01-106.48,0-159.73c0-5.04-1.34-6.32-6.53-6.32c-12.12-0.01-24.24-0.01-36.36,0c-5.43,0-6.29,0.85-6.29,6.25
		C29.53,162.89,29.54,189.51,29.54,216.13z"/>
	<path class="st1" d="M108.35,277.87c0-42.12,0-83.61,0-125.13c9.5-3.07,18.79-6.63,26.44-13.08c6.12-5.15,12.35-10.45,17.25-16.69
		c7.97-10.15,15.36-20.83,22.15-31.81c10.74-17.38,18.41-36.21,24.05-55.85c0.46-1.61,0.6-3.32,0.88-4.95
		c7.93-0.89,16.9,5.98,18.82,13.98c1.64,6.83,0.32,13.5-1.23,19.99c-2.8,11.73-6.24,23.3-9.45,34.92
		c-3.09,11.17,3.28,25.08,12.93,30.61c5.27,3.02,10.83,4.67,16.96,4.55c6.87-0.14,13.75,0.05,20.62-0.05
		c13.94-0.19,27.88-0.45,41.82-0.76c3.57-0.08,7.13-0.66,10.69-0.69c11.25-0.09,16.27,6.53,13.99,17.49
		c-2.03,9.73-3.42,19.6-5.14,29.4c-1.93,11.01-4,22-5.87,33.02c-1.4,8.27-2.51,16.58-3.9,24.85c-1.6,9.46-3.43,18.88-5.05,28.34
		c-1.39,8.13-2.82,16.27-3.87,24.45c-0.81,6.28-5.83,11.24-12.2,11.26c-11.62,0.02-23.25,0.1-34.87-0.02
		c-13.57-0.14-27.13-0.44-40.7-0.74c-7.69-0.17-15.4-0.23-23.06-0.8c-11.8-0.87-23.14-3.95-34-8.58
		c-13.1-5.58-26.44-10.33-40.44-13.05C113.01,278.12,110.78,278.1,108.35,277.87z"/>
	<path class="st1" d="M29.54,216.13c0-26.62,0-53.24,0-79.86c0-5.4,0.86-6.25,6.29-6.25c12.12-0.01,24.24-0.01,36.36,0
		c5.19,0,6.53,1.28,6.53,6.32c0.01,53.24,0.01,106.48,0,159.73c0,5.11-1.3,6.43-6.26,6.44c-12.37,0.01-24.74,0.01-37.11,0
		c-5.05-0.01-5.8-0.75-5.81-5.76C29.53,269.87,29.54,243,29.54,216.13z"/>
</g>
</svg>
