<?xml version="1.0" encoding="utf-8"?>
<!-- Generator: Adobe Illustrator 27.7.0, SVG Export Plug-In . SVG Version: 6.00 Build 0)  -->
<svg version="1.1" id="Layer_1" xmlns="http://www.w3.org/2000/svg" xmlns:xlink="http://www.w3.org/1999/xlink" x="0px" y="0px"
	 viewBox="0 0 354.4 332.07" style="enable-background:new 0 0 354.4 332.07;" xml:space="preserve">
<style type="text/css">
	.st0{fill:#ef476f;}
	.st1{fill:#2B2D42;}
</style>
<g>
	<path class="st0" d="M118.19,226.6c-7.49,0.39-14.4,0.91-21.32,1.06c-8,0.18-16-0.05-24,0.07c-10.57,0.16-21.13,0.54-31.7,0.71
		c-19.3,0.31-35.99-13.71-40.3-32.09c-1.84-7.83-0.4-15.58,0.97-23.32c1.48-8.38,2.78-16.79,4.18-25.18
		c1.3-7.79,2.61-15.59,3.95-23.38c1.42-8.26,2.9-16.5,4.31-24.76c1.37-8.04,2.67-16.09,4.02-24.14c1.4-8.38,2.66-16.79,4.26-25.13
		c2.09-10.87,2.38-22.25,9.51-31.71C39.52,8.85,48.9,2.11,61.39,1.21c9.33-0.68,18.74-0.13,28.12-0.13c8,0,16-0.08,24,0.02
		c14.7,0.19,29.39,0.37,44.09,0.76c19.9,0.52,38.89,5.18,57.08,13.19c9.99,4.4,20.35,7.53,31.14,9.14c0.73,0.11,2.07-0.99,2.44-1.83
		c4.83-11.04,12.47-18.81,24.59-21.36c2.75-0.58,5.6-0.85,8.41-0.87c13.13-0.09,26.26,0.23,39.38-0.1
		c15.68-0.4,29.15,10.66,33.32,26.33c0.69,2.57,0.34,5.44,0.34,8.17c0.01,54.27-0.08,108.54,0.07,162.81
		c0.04,13.29-5.61,23.19-16.72,29.74c-4.11,2.42-9.28,4.01-14.03,4.18c-14.86,0.54-29.76,0.67-44.62,0.12
		c-12.95-0.47-22.85-6.8-29.1-18.38c-0.57-1.05-1.04-2.16-1.47-3.08c-14.1,5.09-22.58,16.25-30.73,27.41
		c-14.18,19.4-25.05,40.58-31.81,63.74c-1.49,5.09-2.6,10.31-4.33,15.31c-2.96,8.58-13.29,15.49-22.35,15.68
		c-15.76,0.34-29.32-4.75-40.03-16.4c-7.91-8.61-12.38-18.81-12.64-30.73c-0.41-18.97,5.08-36.77,10.59-54.58
		C117.43,229.35,117.7,228.34,118.19,226.6z M246.05,54.2c-2.43-0.23-4.66-0.25-6.81-0.67c-14-2.72-27.34-7.47-40.44-13.05
		c-10.86-4.63-22.2-7.71-34-8.58c-7.67-0.57-15.37-0.63-23.06-0.8c-13.56-0.3-27.13-0.6-40.7-0.74
		c-11.62-0.12-23.25-0.04-34.87-0.02c-6.37,0.01-11.4,4.98-12.2,11.26c-1.05,8.18-2.48,16.31-3.87,24.45
		c-1.62,9.46-3.46,18.88-5.05,28.34c-1.4,8.27-2.5,16.58-3.9,24.85c-1.87,11.02-3.93,22.01-5.87,33.02
		c-1.72,9.8-3.11,19.67-5.14,29.4c-2.29,10.96,2.74,17.59,13.99,17.49c3.57-0.03,7.13-0.61,10.69-0.69
		c13.94-0.31,27.88-0.56,41.82-0.76c6.87-0.1,13.75,0.09,20.62-0.05c6.13-0.12,11.69,1.53,16.96,4.55
		c9.65,5.53,16.02,19.44,12.93,30.61c-3.21,11.63-6.65,23.2-9.45,34.92c-1.55,6.49-2.87,13.15-1.23,19.99
		c1.92,8,10.89,14.87,18.82,13.98c0.28-1.62,0.41-3.33,0.88-4.95c5.64-19.64,13.31-38.47,24.05-55.85
		c6.79-10.98,14.18-21.66,22.15-31.81c4.9-6.24,11.13-11.54,17.25-16.69c7.66-6.45,16.94-10,26.44-13.08
		C246.05,137.81,246.05,96.32,246.05,54.2z M324.86,115.94c0-26.87,0-53.74,0-80.61c0-5-0.76-5.75-5.81-5.76
		c-12.37-0.01-24.74-0.01-37.11,0c-4.96,0-6.26,1.33-6.26,6.44c-0.01,53.24-0.01,106.48,0,159.73c0,5.04,1.34,6.32,6.53,6.32
		c12.12,0.01,24.24,0.01,36.36,0c5.43,0,6.29-0.85,6.29-6.25C324.86,169.18,324.86,142.56,324.86,115.94z"/>
	<path class="st1" d="M246.05,54.2c0,42.12,0,83.61,0,125.13c-9.5,3.07-18.79,6.63-26.44,13.08c-6.12,5.15-12.35,10.45-17.25,16.69
		c-7.97,10.15-15.36,20.83-22.15,31.81c-10.74,17.38-18.41,36.21-24.05,55.85c-0.46,1.61-0.6,3.32-0.88,4.95
		c-7.93,0.89-16.9-5.98-18.82-13.98c-1.64-6.83-0.32-13.5,1.23-19.99c2.8-11.73,6.24-23.3,9.45-34.92
		c3.09-11.17-3.28-25.08-12.93-30.61c-5.27-3.02-10.83-4.67-16.96-4.55c-6.87,0.14-13.75-0.05-20.62,0.05
		c-13.94,0.19-27.88,0.45-41.82,0.76c-3.57,0.08-7.13,0.66-10.69,0.69c-11.25,0.09-16.28-6.53-13.99-17.49
		c2.03-9.73,3.42-19.6,5.14-29.4c1.93-11.01,4-22,5.87-33.02c1.4-8.27,2.51-16.58,3.9-24.85c1.6-9.46,3.43-18.88,5.05-28.34
		c1.39-8.13,2.82-16.27,3.87-24.45c0.81-6.28,5.83-11.24,12.2-11.26c11.62-0.02,23.25-0.1,34.87,0.02
		c13.57,0.14,27.13,0.44,40.7,0.74c7.69,0.17,15.4,0.23,23.06,0.8c11.8,0.87,23.14,3.95,34,8.58c13.1,5.58,26.44,10.33,40.44,13.05
		C241.39,53.95,243.61,53.97,246.05,54.2z"/>
	<path class="st1" d="M324.86,115.94c0,26.62,0,53.24,0,79.86c0,5.4-0.86,6.25-6.29,6.25c-12.12,0.01-24.24,0.01-36.36,0
		c-5.19,0-6.53-1.28-6.53-6.32c-0.01-53.24-0.01-106.48,0-159.73c0-5.11,1.3-6.43,6.26-6.44c12.37-0.01,24.74-0.01,37.11,0
		c5.05,0.01,5.8,0.75,5.81,5.76C324.86,62.2,324.86,89.07,324.86,115.94z"/>
</g>
</svg>
